<?xml version="1.0" standalone="no"?>
<!DOCTYPE svg PUBLIC "-//W3C//DTD SVG 20010904//EN"
 "http://www.w3.org/TR/2001/REC-SVG-20010904/DTD/svg10.dtd">
<svg version="1.0" xmlns="http://www.w3.org/2000/svg"
 width="512.000000pt" height="512.000000pt" viewBox="0 0 512.000000 512.000000"
 preserveAspectRatio="xMidYMid meet">
<metadata>
Created by potrace 1.16, written by Peter Selinger 2001-2019
</metadata>
<g transform="translate(0.000000,512.000000) scale(0.100000,-0.100000)"
fill="#000000" stroke="none">
<path d="M2310 4334 c-19 -3 -90 -14 -158 -25 -818 -135 -1581 -707 -2088
-1564 -59 -100 -59 -100 -59 -180 0 -80 0 -80 59 -180 264 -448 635 -855 1016
-1117 350 -241 709 -388 1105 -455 88 -14 164 -18 380 -18 302 0 405 13 651
80 722 198 1387 744 1840 1510 59 100 59 100 59 180 0 80 0 80 -59 180 -453
766 -1118 1312 -1840 1509 -232 64 -342 78 -621 81 -137 2 -266 1 -285 -1z
m525 -420 c379 -52 746 -214 1095 -482 110 -85 394 -370 493 -493 88 -111 257
-357 257 -374 0 -6 -41 -71 -90 -144 -307 -451 -689 -798 -1105 -1001 -313
-154 -602 -222 -936 -221 -476 1 -928 167 -1359 499 -110 85 -394 369 -493
493 -88 111 -257 357 -257 374 0 17 171 265 258 374 102 127 303 333 427 438
507 427 1118 618 1710 537z"/>
<path d="M2441 3549 c-216 -25 -406 -117 -570 -273 -93 -90 -150 -169 -206
-287 -72 -154 -90 -236 -90 -424 0 -189 18 -272 91 -424 57 -120 113 -198 205
-287 260 -249 614 -339 960 -243 155 43 293 123 418 243 93 90 150 169 206
287 72 154 90 236 90 424 0 188 -18 270 -90 424 -56 118 -113 197 -206 287
-168 161 -353 248 -584 274 -101 11 -119 11 -224 -1z m299 -435 c149 -47 270
-154 340 -299 59 -123 75 -242 49 -367 -16 -80 -81 -206 -139 -270 -274 -306
-772 -235 -950 137 -82 171 -82 329 0 500 127 265 417 389 700 299z"/>
</g>
</svg>
