<?xml version="1.0" standalone="no"?>
<!DOCTYPE svg PUBLIC "-//W3C//DTD SVG 20010904//EN"
 "http://www.w3.org/TR/2001/REC-SVG-20010904/DTD/svg10.dtd">
<svg version="1.0" xmlns="http://www.w3.org/2000/svg"
 width="512.000000pt" height="512.000000pt" viewBox="0 0 512.000000 512.000000"
 preserveAspectRatio="xMidYMid meet">
<metadata>
Created by potrace 1.16, written by Peter Selinger 2001-2019
</metadata>
<g transform="translate(0.000000,512.000000) scale(0.100000,-0.100000)"
fill="#000000" stroke="none">
<path d="M4235 4461 c-16 -10 -146 -136 -288 -278 l-258 -259 -121 48 c-218
88 -440 143 -689 174 -189 23 -581 15 -759 -15 -378 -65 -702 -188 -1024 -388
-380 -236 -726 -571 -985 -953 -101 -149 -111 -169 -111 -230 0 -59 10 -80
101 -216 237 -353 590 -704 930 -924 46 -30 86 -56 89 -57 2 -2 -100 -108
-227 -236 -127 -128 -236 -242 -242 -254 -6 -12 -11 -46 -11 -75 0 -97 61
-158 158 -158 29 0 65 6 80 14 33 18 3575 3562 3591 3593 6 12 11 46 11 75 0
63 -24 109 -72 138 -44 27 -132 27 -173 1z m-1350 -651 c158 -22 328 -63 459
-111 l88 -32 -158 -158 c-147 -147 -160 -158 -179 -145 -105 68 -225 117 -345
141 -117 24 -343 17 -449 -14 -330 -96 -577 -345 -673 -677 -31 -108 -33 -380
-4 -489 24 -89 73 -205 114 -270 l31 -50 -199 -199 -199 -200 -93 59 c-331
209 -660 520 -878 832 l-43 62 35 53 c79 119 210 272 367 429 173 172 284 264
459 380 507 336 1083 470 1667 389z m-142 -646 c47 -15 127 -51 127 -57 0 -1
-193 -195 -430 -432 l-429 -429 -25 54 c-39 85 -56 166 -56 265 0 202 88 377
255 503 157 118 376 156 558 96z"/>
<path d="M4132 3467 c-61 -62 -112 -117 -111 -122 0 -6 39 -39 86 -75 176
-133 483 -458 620 -657 l36 -53 -46 -68 c-127 -186 -407 -483 -597 -636 -470
-375 -992 -566 -1550 -567 -184 0 -289 9 -455 41 l-100 20 -127 -127 c-110
-110 -145 -153 -123 -153 3 0 58 -13 123 -30 251 -63 349 -74 667 -75 324 0
419 10 665 71 700 172 1345 639 1789 1294 101 149 111 169 111 230 0 61 -10
81 -111 230 -180 266 -409 516 -655 716 -50 41 -95 74 -100 74 -5 0 -60 -51
-122 -113z"/>
<path d="M3336 2671 l-140 -140 -17 -85 c-52 -259 -248 -455 -505 -505 l-84
-16 -141 -141 c-78 -78 -139 -146 -136 -151 4 -6 40 -16 81 -23 108 -18 329
-8 425 20 327 94 576 343 672 671 39 135 35 492 -6 506 -6 2 -73 -60 -149
-136z"/>
</g>
</svg>
